HIERARCHY
ROOT Hips
{
	OFFSET 0.000000 71.427986 0.000000
	CHANNELS 6 Xposition Yposition Zposition Xrotation Yrotation Zrotation
	JOINT Pelvis
	{
		OFFSET 0.000000 0.000000 0.000000
		CHANNELS 3 Xrotation Yrotation Zrotation
		JOINT LeftUpLeg
		{
			OFFSET 6.797100 -2.508499 -1.318700
			CHANNELS 3 Xrotation Yrotation Zrotation
			JOINT LeftLeg
			{
				OFFSET 0.069008 -29.241863 0.690200
				CHANNELS 3 Xrotation Yrotation Zrotation
				JOINT LeftFoot
				{
					OFFSET -0.069008 -29.568123 -0.266800
					CHANNELS 3 Xrotation Yrotation Zrotation
					JOINT LeftToeBase
					{
						OFFSET 3.145500 -8.631000 16.059900
						CHANNELS 3 Xrotation Yrotation Zrotation
						End Site
						{
							OFFSET 0.000000 18.501587 0.000000
						}
					}
				}
			}
			JOINT Left_ShortSleeve
			{
				OFFSET 0.265923 -10.480953 1.153800
				CHANNELS 3 Xrotation Yrotation Zrotation
				End Site
				{
					OFFSET 1.725763 19.823879 0.000000
				}
			}
		}
		JOINT RightUpLeg
		{
			OFFSET -6.797100 -2.508499 -1.318700
			CHANNELS 3 Xrotation Yrotation Zrotation
			JOINT RightLeg
			{
				OFFSET -0.082453 -29.241932 0.688000
				CHANNELS 3 Xrotation Yrotation Zrotation
				JOINT RightFoot
				{
					OFFSET 0.082453 -29.568058 -0.264600
					CHANNELS 3 Xrotation Yrotation Zrotation
					JOINT RightToeBase
					{
						OFFSET -3.115300 -8.682800 16.113400
						CHANNELS 3 Xrotation Yrotation Zrotation
						End Site
						{
							OFFSET 0.000000 18.567114 0.000000
						}
					}
				}
			}
			JOINT Right_ShortSleeve
			{
				OFFSET -0.265923 -10.480953 1.153800
				CHANNELS 3 Xrotation Yrotation Zrotation
				End Site
				{
					OFFSET -1.725766 19.823910 0.000000
				}
			}
		}
	}
	JOINT Spine
	{
		OFFSET 0.000000 13.368103 0.470500
		CHANNELS 3 Xrotation Yrotation Zrotation
		JOINT Spine1
		{
			OFFSET 0.147000 13.837402 0.538800
			CHANNELS 3 Xrotation Yrotation Zrotation
			JOINT Spine2
			{
				OFFSET 0.168000 16.242897 -1.435500
				CHANNELS 3 Xrotation Yrotation Zrotation
				JOINT Neck
				{
					OFFSET 0.217200 18.631500 -1.679100
					CHANNELS 3 Xrotation Yrotation Zrotation
					JOINT Head
					{
						OFFSET 0.000000 6.599396 1.385900
						CHANNELS 3 Xrotation Yrotation Zrotation
						JOINT Hat
						{
							OFFSET -0.532200 27.220596 -10.096100
							CHANNELS 3 Xrotation Yrotation Zrotation
							End Site
							{
								OFFSET 0.000000 22.029861 0.000000
							}
						}
						JOINT HairD
						{
							OFFSET -10.777400 17.437393 -1.325900
							CHANNELS 3 Xrotation Yrotation Zrotation
							JOINT HairD1
							{
								OFFSET -3.290299 -11.051193 1.062200
								CHANNELS 3 Xrotation Yrotation Zrotation
								End Site
								{
									OFFSET 0.000000 11.579437 0.000000
								}
							}
						}
						JOINT HairB
						{
							OFFSET -10.777400 17.437393 1.467900
							CHANNELS 3 Xrotation Yrotation Zrotation
							JOINT HairB1
							{
								OFFSET -1.561200 -12.956299 3.590200
								CHANNELS 3 Xrotation Yrotation Zrotation
								End Site
								{
									OFFSET 0.000000 13.534866 0.000000
								}
							}
						}
						JOINT HairA
						{
							OFFSET 9.713100 17.437393 1.467900
							CHANNELS 3 Xrotation Yrotation Zrotation
							JOINT HairA1
							{
								OFFSET 1.561200 -12.956299 3.590200
								CHANNELS 3 Xrotation Yrotation Zrotation
								End Site
								{
									OFFSET 0.000000 13.534866 0.000000
								}
							}
						}
						JOINT HairC
						{
							OFFSET 9.713100 17.437393 -1.325900
							CHANNELS 3 Xrotation Yrotation Zrotation
							JOINT HairC1
							{
								OFFSET 3.290300 -11.051193 1.062200
								CHANNELS 3 Xrotation Yrotation Zrotation
								End Site
								{
									OFFSET 0.000000 11.579437 0.000000
								}
							}
						}
					}
				}
				JOINT LeftShoulder
				{
					OFFSET 5.101800 15.108002 -2.763700
					CHANNELS 3 Xrotation Yrotation Zrotation
					JOINT LeftArm
					{
						OFFSET 9.825497 2.506317 -1.597400
						CHANNELS 3 Xrotation Yrotation Zrotation
						JOINT LeftForeArm
						{
							OFFSET 21.966244 0.000000 0.000000
							CHANNELS 3 Xrotation Yrotation Zrotation
							JOINT LeftHand
							{
								OFFSET 33.879036 0.000000 0.000000
								CHANNELS 3 Xrotation Yrotation Zrotation
								JOINT LeftHandThumb1
								{
									OFFSET 6.715286 -2.359680 3.363841
									CHANNELS 3 Xrotation Yrotation Zrotation
									JOINT LeftHandThumb2
									{
										OFFSET 2.507072 -1.447464 1.447461
										CHANNELS 3 Xrotation Yrotation Zrotation
										JOINT LeftHandThumb3
										{
											OFFSET 2.898338 -1.673355 1.673357
											CHANNELS 3 Xrotation Yrotation Zrotation
											End Site
											{
												OFFSET -0.295959 3.727692 -0.131651
											}
										}
									}
								}
								JOINT LeftHandIndex1
								{
									OFFSET 14.190811 -0.254547 3.840278
									CHANNELS 3 Xrotation Yrotation Zrotation
									JOINT LeftHandIndex2
									{
										OFFSET 3.551727 0.000000 -0.000000
										CHANNELS 3 Xrotation Yrotation Zrotation
										JOINT LeftHandIndex3
										{
											OFFSET 2.894196 0.000000 0.000000
											CHANNELS 3 Xrotation Yrotation Zrotation
											End Site
											{
												OFFSET -1.000603 2.690872 0.366626
											}
										}
									}
								}
								JOINT LeftHandMiddle1
								{
									OFFSET 13.776489 0.000000 0.000000
									CHANNELS 3 Xrotation Yrotation Zrotation
									JOINT LeftHandMiddle2
									{
										OFFSET 3.438232 0.000000 0.000000
										CHANNELS 3 Xrotation Yrotation Zrotation
										JOINT LeftHandMiddle3
										{
											OFFSET 3.691551 0.000000 0.000000
											CHANNELS 3 Xrotation Yrotation Zrotation
											End Site
											{
												OFFSET -1.082298 3.499527 0.457670
											}
										}
									}
								}
								JOINT LeftHandRing1
								{
									OFFSET 13.966164 -0.268127 -3.067488
									CHANNELS 3 Xrotation Yrotation Zrotation
									JOINT LeftHandRing2
									{
										OFFSET 3.162567 0.000000 0.000000
										CHANNELS 3 Xrotation Yrotation Zrotation
										JOINT LeftHandRing3
										{
											OFFSET 3.324348 0.000000 0.000000
											CHANNELS 3 Xrotation Yrotation Zrotation
											End Site
											{
												OFFSET -0.861900 3.184998 0.405154
											}
										}
									}
								}
								JOINT LeftHandPinky1
								{
									OFFSET 13.131393 -0.168503 -5.746925
									CHANNELS 3 Xrotation Yrotation Zrotation
									JOINT LeftHandPinky2
									{
										OFFSET 2.849182 0.000000 0.000000
										CHANNELS 3 Xrotation Yrotation Zrotation
										JOINT LeftHandPinky3
										{
											OFFSET 2.805038 0.000000 0.000000
											CHANNELS 3 Xrotation Yrotation Zrotation
											End Site
											{
												OFFSET -0.882500 2.642609 0.325652
											}
										}
									}
								}
							}
							JOINT Left_Sleeve
							{
								OFFSET 6.592125 -0.646545 0.805568
								CHANNELS 3 Xrotation Yrotation Zrotation
								End Site
								{
									OFFSET -0.000179 20.275787 -0.000000
								}
							}
						}
					}
				}
				JOINT RightShoulder
				{
					OFFSET -5.731700 15.108002 -2.763700
					CHANNELS 3 Xrotation Yrotation Zrotation
					JOINT RightArm
					{
						OFFSET -9.825497 2.506317 -1.597400
						CHANNELS 3 Xrotation Yrotation Zrotation
						JOINT RightForeArm
						{
							OFFSET -21.966242 0.000000 0.000000
							CHANNELS 3 Xrotation Yrotation Zrotation
							JOINT RightHand
							{
								OFFSET -33.879032 0.000000 0.000000
								CHANNELS 3 Xrotation Yrotation Zrotation
								JOINT RightHandThumb1
								{
									OFFSET -6.715286 -2.359680 3.363841
									CHANNELS 3 Xrotation Yrotation Zrotation
									JOINT RightHandThumb2
									{
										OFFSET -2.507072 -1.447464 1.447461
										CHANNELS 3 Xrotation Yrotation Zrotation
										JOINT RightHandThumb3
										{
											OFFSET -2.898338 -1.673355 1.673357
											CHANNELS 3 Xrotation Yrotation Zrotation
											End Site
											{
												OFFSET 0.295959 3.727692 -0.131651
											}
										}
									}
								}
								JOINT RightHandIndex1
								{
									OFFSET -14.190811 -0.254547 3.840278
									CHANNELS 3 Xrotation Yrotation Zrotation
									JOINT RightHandIndex2
									{
										OFFSET -3.551727 0.000000 -0.000000
										CHANNELS 3 Xrotation Yrotation Zrotation
										JOINT RightHandIndex3
										{
											OFFSET -2.894196 0.000000 0.000000
											CHANNELS 3 Xrotation Yrotation Zrotation
											End Site
											{
												OFFSET 1.000603 2.690872 0.366626
											}
										}
									}
								}
								JOINT RightHandMiddle1
								{
									OFFSET -13.776489 0.000000 0.000000
									CHANNELS 3 Xrotation Yrotation Zrotation
									JOINT RightHandMiddle2
									{
										OFFSET -3.438232 0.000000 0.000000
										CHANNELS 3 Xrotation Yrotation Zrotation
										JOINT RightHandMiddle3
										{
											OFFSET -3.691551 0.000000 0.000000
											CHANNELS 3 Xrotation Yrotation Zrotation
											End Site
											{
												OFFSET 1.082298 3.499527 0.457670
											}
										}
									}
								}
								JOINT RightHandRing1
								{
									OFFSET -13.966164 -0.268127 -3.067488
									CHANNELS 3 Xrotation Yrotation Zrotation
									JOINT RightHandRing2
									{
										OFFSET -3.162567 0.000000 0.000000
										CHANNELS 3 Xrotation Yrotation Zrotation
										JOINT RightHandRing3
										{
											OFFSET -3.324348 0.000000 0.000000
											CHANNELS 3 Xrotation Yrotation Zrotation
											End Site
											{
												OFFSET 0.861900 3.184998 0.405154
											}
										}
									}
								}
								JOINT RightHandPinky1
								{
									OFFSET -13.131393 -0.168503 -5.746925
									CHANNELS 3 Xrotation Yrotation Zrotation
									JOINT RightHandPinky2
									{
										OFFSET -2.849182 0.000000 0.000000
										CHANNELS 3 Xrotation Yrotation Zrotation
										JOINT RightHandPinky3
										{
											OFFSET -2.805038 0.000000 0.000000
											CHANNELS 3 Xrotation Yrotation Zrotation
											End Site
											{
												OFFSET 0.882500 2.642609 0.325652
											}
										}
									}
								}
							}
							JOINT Right_Sleeve
							{
								OFFSET -6.592125 -0.646545 0.805568
								CHANNELS 3 Xrotation Yrotation Zrotation
								End Site
								{
									OFFSET 0.000179 20.275787 -0.000000
								}
							}
						}
					}
				}
				JOINT Bind_Right_JacketString
				{
					OFFSET -3.534800 11.969597 7.200700
					CHANNELS 3 Xrotation Yrotation Zrotation
					JOINT Bind_Right_JacketString1
					{
						OFFSET -0.319900 -6.102600 2.794100
						CHANNELS 3 Xrotation Yrotation Zrotation
						End Site
						{
							OFFSET 0.000000 6.719452 0.000000
						}
					}
				}
				JOINT Bind_Left_JacketString
				{
					OFFSET 2.904800 11.969597 7.200700
					CHANNELS 3 Xrotation Yrotation Zrotation
					JOINT Bind_Left_JacketString1
					{
						OFFSET 0.364800 -5.904503 3.186800
						CHANNELS 3 Xrotation Yrotation Zrotation
						End Site
						{
							OFFSET 0.000000 6.719513 0.000000
						}
					}
				}
				JOINT HairE
				{
					OFFSET 5.915200 17.612701 -11.592200
					CHANNELS 3 Xrotation Yrotation Zrotation
					JOINT HairE1
					{
						OFFSET 0.289200 -7.171898 -1.284500
						CHANNELS 3 Xrotation Yrotation Zrotation
						End Site
						{
							OFFSET 0.000000 7.291756 0.000000
						}
					}
				}
				JOINT HairF
				{
					OFFSET -0.864800 17.612701 -11.592200
					CHANNELS 3 Xrotation Yrotation Zrotation
					JOINT HairF1
					{
						OFFSET 0.000000 -14.087097 -2.127501
						CHANNELS 3 Xrotation Yrotation Zrotation
						End Site
						{
							OFFSET 0.000000 14.246841 0.000000
						}
					}
				}
				JOINT HairG
				{
					OFFSET -8.087700 17.612701 -11.592200
					CHANNELS 3 Xrotation Yrotation Zrotation
					JOINT HairG1
					{
						OFFSET -0.293600 -6.081398 -0.910100
						CHANNELS 3 Xrotation Yrotation Zrotation
						End Site
						{
							OFFSET 0.000000 6.156120 0.000000
						}
					}
				}
			}
		}
	}
	JOINT Pouch
	{
		OFFSET 0.000000 4.394501 10.847300
		CHANNELS 3 Xrotation Yrotation Zrotation
		End Site
		{
			OFFSET 0.000000 21.880577 0.000000
		}
	}
	JOINT Bag
	{
		OFFSET -13.229000 4.813004 -0.593300
		CHANNELS 3 Xrotation Yrotation Zrotation
		End Site
		{
			OFFSET 0.000000 21.880577 0.000000
		}
	}
	JOINT OccupyGuyFacialAnim_Joint
	{
		OFFSET 1.000000 -70.206398 -1.655000
		CHANNELS 3 Xrotation Yrotation Zrotation
		End Site
		{
			OFFSET 0.000000 21.880577 0.000000
		}
	}
}
MOTION
Frames: 4
Frame Time: 0.016667
-23.288944 35.416100 198.444733 190.002598 13.566741 -177.191008 0.000000 0.000000 -0.000000 -94.978616 3.716315 36.225810 108.769779 -0.113092 -3.553036 -2.951181 -10.392060 11.920098 0.000000 -0.000001 0.000000 0.000000 0.000000 -0.000000 -95.828237 7.050882 -15.572860 112.465622 -8.711299 2.186626 -6.775330 3.343198 -12.455481 0.000000 0.000000 0.000001 -0.000000 0.000001 -0.000002 16.790309 -3.994326 -8.999922 3.969193 -0.741153 -2.119501 3.979514 -0.739449 -2.101518 0.912699 0.186793 0.154902 -20.090701 -2.727753 8.655182 -0.000000 -0.000001 0.000000 -0.000000 -0.000001 0.000000 -0.000000 -0.000001 -0.000000 -0.000000 -0.000001 -0.000000 -0.000000 0.000001 -0.000000 -0.000000 -0.000001 -0.000000 -0.000000 0.000001 -0.000000 -0.000000 -0.000001 0.000000 -0.000000 -0.000001 0.000000 1.384111 -5.715089 -11.757629 -18.360607 -40.146233 -47.046155 0.000004 -56.855468 -0.000005 40.891885 -11.279952 -14.873591 -9.353685 -4.410886 -1.012472 21.377795 38.831155 0.008450 -0.000002 0.000001 -0.000001 1.241273 5.556513 -31.143740 2.581732 4.855088 -55.983898 0.000000 0.000001 -0.000000 2.333433 7.138681 -41.308223 3.977886 5.544103 -71.298125 0.000000 0.000005 0.000005 2.817951 7.449801 -47.416611 3.975401 5.543272 -71.272389 0.000001 -0.000004 0.000002 2.416435 7.232778 -41.295512 3.976823 5.543751 -71.287067 -0.000000 0.000001 0.000003 0.000000 0.000000 -0.000001 -4.126467 21.353058 -2.025799 -21.913719 29.410777 24.489288 0.000017 107.646425 -0.000002 -60.125848 14.340469 -11.279283 49.904552 33.562419 -17.441687 11.431400 -12.158977 7.800701 0.000000 -0.000002 0.000003 0.249902 -3.804209 14.940626 2.023872 -3.842581 55.538717 -0.000001 0.000000 0.000002 1.128245 -5.542199 26.437074 1.145657 -3.061072 41.030288 -0.000003 -0.000000 -0.000001 1.283867 -5.672038 29.821890 1.502262 -3.427484 47.325267 -0.000001 0.000001 0.000001 1.244946 -5.502217 26.494316 0.986043 -2.867635 37.944699 0.000001 -0.000000 0.000000 -0.000002 -0.000002 -0.000001 0.000000 -0.000001 0.000001 0.000001 -0.000001 0.000001 0.000000 -0.000001 0.000000 0.000000 -0.000001 0.000000 0.000000 -0.000001 0.000001 0.000001 -0.000001 0.000001 0.000000 -0.000001 0.000000 0.000000 -0.000001 0.000000 0.000000 -0.000001 0.000001 0.000001 -0.000001 0.000001 0.000000 0.000000 -0.000000 0.000000 0.000000 -0.000000 0.000000 0.000000 -0.000000 
-23.283159 35.414932 198.445755 189.959117 13.568906 -177.193549 -0.000001 0.000000 0.000000 -95.012842 3.680513 36.200679 108.768051 -0.113509 -3.551363 -2.950301 -10.368186 11.895769 0.000000 0.000001 -0.000000 -0.000002 0.000000 -0.000001 -95.869512 7.031629 -15.572148 112.472520 -8.711438 2.193430 -6.780826 3.344352 -12.460756 -0.000000 0.000000 -0.000000 0.000000 0.000000 -0.000003 16.777998 -3.979731 -8.984246 3.960992 -0.736602 -2.125366 3.971178 -0.734081 -2.108094 0.911079 0.174949 0.179144 -20.499619 -2.826081 8.645565 0.000000 0.000001 -0.000000 0.000000 0.000001 -0.000000 0.000000 0.000001 -0.000000 0.000000 0.000001 -0.000000 0.000000 -0.000001 -0.000000 0.000000 0.000001 -0.000000 0.000000 -0.000001 -0.000000 0.000000 0.000001 -0.000000 0.000000 0.000001 -0.000000 1.385413 -5.719504 -11.741870 -18.383997 -40.127334 -47.070583 -0.000029 -56.804843 -0.000030 40.970436 -11.176326 -14.771746 -9.625156 -4.324156 -1.515798 21.379115 38.837576 0.008460 -0.000000 0.000002 0.000001 1.241007 5.556784 -31.144051 2.581808 4.855136 -55.984885 0.000003 0.000000 -0.000000 2.333952 7.139081 -41.314578 3.978630 5.544341 -71.305884 -0.000000 0.000003 -0.000001 2.846255 7.466659 -47.739897 3.975195 5.543202 -71.270456 0.000001 0.000001 -0.000001 2.416451 7.232793 -41.296031 3.978157 5.544198 -71.301000 -0.000002 0.000000 0.000003 0.000001 0.000001 0.000004 -4.269432 21.023290 -2.430176 -22.824069 29.584285 24.643072 0.000003 108.149523 -0.000003 -60.083965 15.273713 -11.131790 49.905146 33.561268 -17.441687 11.433888 -12.159214 7.799879 -0.000001 -0.000001 -0.000000 0.250042 -3.804664 14.942287 2.024036 -3.842667 55.541012 -0.000002 0.000003 0.000001 1.128556 -5.542710 26.438810 1.145710 -3.061167 41.031764 -0.000003 0.000000 0.000001 1.283033 -5.670568 29.822443 1.502285 -3.427527 47.325920 0.000000 0.000000 -0.000003 1.248103 -5.501248 26.496582 0.986120 -2.867733 37.946359 0.000000 0.000001 0.000001 -0.000001 0.000003 -0.000000 0.000001 0.000000 -0.000000 0.000001 0.000000 0.000000 0.000001 0.000000 -0.000000 0.000001 0.000000 -0.000000 0.000001 0.000000 -0.000000 0.000001 0.000000 -0.000000 0.000001 0.000000 -0.000000 0.000001 0.000000 -0.000000 0.000001 0.000000 -0.000000 0.000001 0.000000 -0.000000 -0.000001 0.000000 0.000000 -0.000001 0.000000 0.000000 -0.000001 0.000000 0.000000 
-23.274885 35.417030 198.445236 189.951645 13.579361 -177.198439 0.000000 -0.000000 0.000000 -95.007638 3.653610 36.183289 108.766507 -0.126483 -3.549480 -2.947216 -10.346570 11.904848 -0.000000 -0.000000 -0.000000 -0.000000 -0.000001 0.000000 -95.871882 7.007430 -15.572795 112.466728 -8.701189 2.200426 -6.787179 3.343381 -12.478599 -0.000000 -0.000001 0.000001 0.000002 0.000000 -0.000003 16.768970 -3.967173 -8.970427 3.953007 -0.732006 -2.129829 3.963042 -0.728877 -2.113284 0.909233 0.164212 0.204961 -20.937813 -2.917527 8.648822 -0.000000 0.000001 0.000000 -0.000000 0.000001 0.000000 -0.000000 0.000001 0.000000 -0.000000 0.000001 0.000000 -0.000000 -0.000000 0.000000 -0.000000 0.000001 0.000000 -0.000000 -0.000000 0.000000 -0.000000 0.000001 0.000000 -0.000000 0.000001 0.000000 1.385785 -5.726412 -11.728830 -18.401740 -40.104289 -47.092775 0.000018 -56.770767 0.000030 41.050554 -11.060298 -14.665992 -9.875535 -4.238492 -2.020558 21.379117 38.837555 0.008462 -0.000000 -0.000001 -0.000001 1.240749 5.557033 -31.144433 2.581912 4.855205 -55.985988 0.000001 -0.000002 -0.000004 2.334240 7.139306 -41.318058 3.978884 5.544429 -71.308609 0.000002 0.000003 0.000001 2.874040 7.482984 -48.056176 3.975046 5.543166 -71.268871 -0.000000 0.000001 -0.000001 2.416473 7.232784 -41.296550 3.978210 5.544226 -71.301574 -0.000005 -0.000001 0.000001 0.000000 0.000001 -0.000003 -4.382721 20.715691 -2.732462 -23.680782 29.747885 24.695008 0.000044 108.551882 -0.000041 -59.952648 16.384386 -10.967013 49.905778 33.560145 -17.441718 11.436410 -12.159719 7.799035 -0.000000 0.000001 -0.000000 0.250191 -3.805110 14.943902 2.024183 -3.842761 55.543303 -0.000003 0.000000 -0.000001 1.128882 -5.543235 26.440528 1.145794 -3.061260 41.033352 -0.000001 -0.000002 0.000001 1.282238 -5.669130 29.823475 1.502364 -3.427584 47.327009 0.000002 -0.000001 0.000001 1.251233 -5.500300 26.498849 0.986214 -2.867834 37.947968 -0.000003 0.000001 0.000001 -0.000001 -0.000001 0.000000 -0.000001 0.000001 -0.000000 -0.000000 -0.000001 -0.000000 -0.000001 0.000001 -0.000000 -0.000001 0.000001 -0.000000 -0.000001 0.000001 -0.000000 -0.000000 -0.000001 -0.000000 -0.000001 0.000001 -0.000000 -0.000001 0.000001 -0.000000 -0.000001 0.000001 -0.000000 -0.000000 -0.000001 -0.000000 0.000000 -0.000000 0.000000 0.000000 -0.000000 0.000000 0.000000 -0.000000 0.000000 
-23.265783 35.418709 198.441559 189.940922 13.591600 -177.201458 0.000001 0.000000 0.000000 -94.998997 3.617436 36.173542 108.765052 -0.137329 -3.547443 -2.944668 -10.322187 11.858539 -0.000000 -0.000000 0.000000 -0.000000 0.000000 -0.000002 -95.878255 6.985881 -15.573794 112.463743 -8.690529 2.207875 -6.795137 3.344091 -12.495682 0.000000 0.000001 -0.000000 -0.000001 -0.000001 0.000001 16.760371 -3.959368 -8.955613 3.944886 -0.728167 -2.131930 3.954818 -0.724024 -2.115637 0.906908 0.156214 0.232181 -21.411171 -2.995303 8.669108 -0.000000 0.000000 0.000000 -0.000000 0.000000 0.000000 -0.000000 0.000000 0.000000 -0.000000 0.000000 -0.000000 -0.000000 0.000002 0.000000 -0.000000 0.000000 -0.000000 -0.000000 0.000002 0.000000 -0.000000 0.000000 0.000000 -0.000000 0.000000 0.000000 1.385079 -5.737310 -11.717957 -18.413633 -40.072392 -47.113053 0.000012 -56.750847 0.000014 41.115318 -10.949207 -14.571609 -10.109457 -4.152945 -2.519851 21.379122 38.837521 0.008457 -0.000000 0.000002 0.000002 1.240482 5.557310 -31.144966 2.582009 4.855287 -55.987207 -0.000000 -0.000001 -0.000004 2.334407 7.139419 -41.320192 3.979021 5.544484 -71.309975 0.000001 -0.000000 -0.000001 2.901198 7.498741 -48.364604 3.974923 5.543122 -71.267546 0.000001 0.000000 -0.000001 2.416492 7.232799 -41.297151 3.977454 5.543961 -71.293719 -0.000003 -0.000000 0.000001 0.000001 -0.000001 -0.000001 -4.490359 20.422747 -2.985067 -24.488615 29.920911 24.697430 -0.000053 108.890352 0.000051 -59.803142 17.545393 -10.769455 49.906416 33.559038 -17.441800 11.438876 -12.160204 7.798176 0.000002 -0.000001 0.000003 0.250291 -3.805534 14.945458 2.024355 -3.842886 55.545585 -0.000005 0.000001 -0.000001 1.129146 -5.543746 26.442087 1.145917 -3.061382 41.035343 -0.000001 -0.000001 -0.000001 1.281512 -5.667766 29.825490 1.502478 -3.427675 47.328928 0.000002 -0.000001 -0.000001 1.254266 -5.499361 26.501067 0.986274 -2.867943 37.949586 -0.000001 0.000000 -0.000003 -0.000000 0.000003 0.000001 0.000001 0.000001 -0.000000 0.000002 0.000001 0.000000 0.000001 0.000001 -0.000001 0.000001 0.000001 -0.000001 0.000001 0.000001 -0.000000 0.000002 0.000001 -0.000000 0.000001 0.000001 -0.000001 0.000001 0.000001 -0.000001 0.000001 0.000001 -0.000000 0.000002 0.000001 -0.000000 0.000001 0.000000 0.000000 0.000001 0.000000 0.000000 0.000001 0.000000 0.000000 
